<mxfile host="Electron" agent="Mozilla/5.0 (Macintosh; Intel Mac OS X 10_15_7) AppleWebKit/537.36 (KHTML, like Gecko) draw.io/27.0.2 Chrome/134.0.6998.205 Electron/35.3.0 Safari/537.36" version="27.0.2">
  <diagram name="Page-1" id="5nPqUFUFdSZMDEO8Vu6n">
    <mxGraphModel dx="1928" dy="802" grid="0" gridSize="10" guides="1" tooltips="1" connect="1" arrows="1" fold="1" page="1" pageScale="1" pageWidth="850" pageHeight="1100" math="0" shadow="0">
      <root>
        <mxCell id="0" />
        <mxCell id="1" parent="0" />
        <mxCell id="MjvKJOx-emdqVly3m24N-1" value="doctore" style="shape=umlLifeline;perimeter=lifelinePerimeter;whiteSpace=wrap;html=1;container=1;dropTarget=0;collapsible=0;recursiveResize=0;outlineConnect=0;portConstraint=eastwest;newEdgeStyle={&quot;curved&quot;:0,&quot;rounded&quot;:0};participant=umlActor;labelBackgroundColor=none;fillColor=#FAE5C7;strokeColor=#0F8B8D;fontColor=#143642;sketch=1;curveFitting=1;jiggle=2;" vertex="1" parent="1">
          <mxGeometry x="-107" y="60" width="20" height="780" as="geometry" />
        </mxCell>
        <mxCell id="MjvKJOx-emdqVly3m24N-2" value="" style="html=1;points=[[0,0,0,0,5],[0,1,0,0,-5],[1,0,0,0,5],[1,1,0,0,-5]];perimeter=orthogonalPerimeter;outlineConnect=0;targetShapes=umlLifeline;portConstraint=eastwest;newEdgeStyle={&quot;curved&quot;:0,&quot;rounded&quot;:0};labelBackgroundColor=none;fillColor=#FAE5C7;strokeColor=#0F8B8D;fontColor=#143642;sketch=1;curveFitting=1;jiggle=2;" vertex="1" parent="MjvKJOx-emdqVly3m24N-1">
          <mxGeometry x="5" y="64" width="10" height="684" as="geometry" />
        </mxCell>
        <mxCell id="MjvKJOx-emdqVly3m24N-3" value="list of appointment page" style="shape=umlLifeline;perimeter=lifelinePerimeter;whiteSpace=wrap;html=1;container=1;dropTarget=0;collapsible=0;recursiveResize=0;outlineConnect=0;portConstraint=eastwest;newEdgeStyle={&quot;curved&quot;:0,&quot;rounded&quot;:0};labelBackgroundColor=none;fillColor=#FAE5C7;strokeColor=#0F8B8D;fontColor=#143642;sketch=1;curveFitting=1;jiggle=2;" vertex="1" parent="1">
          <mxGeometry x="59" y="60" width="100" height="543" as="geometry" />
        </mxCell>
        <mxCell id="MjvKJOx-emdqVly3m24N-4" value="" style="html=1;points=[[0,0,0,0,5],[0,1,0,0,-5],[1,0,0,0,5],[1,1,0,0,-5]];perimeter=orthogonalPerimeter;outlineConnect=0;targetShapes=umlLifeline;portConstraint=eastwest;newEdgeStyle={&quot;curved&quot;:0,&quot;rounded&quot;:0};strokeColor=#0F8B8D;fontColor=#143642;fillColor=#FAE5C7;sketch=1;curveFitting=1;jiggle=2;labelBackgroundColor=none;" vertex="1" parent="MjvKJOx-emdqVly3m24N-3">
          <mxGeometry x="45" y="76" width="10" height="177" as="geometry" />
        </mxCell>
        <mxCell id="MjvKJOx-emdqVly3m24N-5" value="auth" style="html=1;verticalAlign=bottom;startArrow=circle;startFill=1;endArrow=open;startSize=6;endSize=8;curved=0;rounded=0;entryX=0;entryY=0;entryDx=0;entryDy=5;entryPerimeter=0;labelBackgroundColor=none;strokeColor=#A8201A;fontColor=default;sketch=1;curveFitting=1;jiggle=2;" edge="1" parent="1">
          <mxGeometry width="80" relative="1" as="geometry">
            <mxPoint x="-212" y="129" as="sourcePoint" />
            <mxPoint x="-102" y="129" as="targetPoint" />
          </mxGeometry>
        </mxCell>
        <mxCell id="MjvKJOx-emdqVly3m24N-6" style="edgeStyle=orthogonalEdgeStyle;rounded=0;orthogonalLoop=1;jettySize=auto;html=1;curved=0;exitX=1;exitY=0;exitDx=0;exitDy=5;exitPerimeter=0;entryX=0;entryY=0;entryDx=0;entryDy=5;entryPerimeter=0;labelBackgroundColor=none;strokeColor=#A8201A;fontColor=default;sketch=1;curveFitting=1;jiggle=2;" edge="1" parent="1">
          <mxGeometry relative="1" as="geometry">
            <mxPoint x="-92" y="145" as="sourcePoint" />
            <mxPoint x="104" y="145" as="targetPoint" />
          </mxGeometry>
        </mxCell>
        <mxCell id="MjvKJOx-emdqVly3m24N-7" value="view&amp;nbsp;&lt;span style=&quot;text-wrap-mode: wrap;&quot;&gt;appointment&lt;/span&gt;&amp;nbsp;page" style="text;html=1;align=center;verticalAlign=middle;resizable=0;points=[];autosize=1;strokeColor=none;fillColor=none;labelBackgroundColor=none;fontColor=#143642;sketch=1;curveFitting=1;jiggle=2;" vertex="1" parent="1">
          <mxGeometry x="-68" y="121" width="141" height="26" as="geometry" />
        </mxCell>
        <mxCell id="MjvKJOx-emdqVly3m24N-8" value="database" style="shape=umlLifeline;perimeter=lifelinePerimeter;whiteSpace=wrap;html=1;container=1;dropTarget=0;collapsible=0;recursiveResize=0;outlineConnect=0;portConstraint=eastwest;newEdgeStyle={&quot;curved&quot;:0,&quot;rounded&quot;:0};strokeColor=#0F8B8D;fontColor=#143642;fillColor=#FAE5C7;sketch=1;curveFitting=1;jiggle=2;labelBackgroundColor=none;" vertex="1" parent="1">
          <mxGeometry x="457" y="60" width="100" height="1250" as="geometry" />
        </mxCell>
        <mxCell id="MjvKJOx-emdqVly3m24N-9" value="" style="html=1;points=[[0,0,0,0,5],[0,1,0,0,-5],[1,0,0,0,5],[1,1,0,0,-5]];perimeter=orthogonalPerimeter;outlineConnect=0;targetShapes=umlLifeline;portConstraint=eastwest;newEdgeStyle={&quot;curved&quot;:0,&quot;rounded&quot;:0};strokeColor=#0F8B8D;fontColor=#143642;fillColor=#FAE5C7;sketch=1;curveFitting=1;jiggle=2;labelBackgroundColor=none;" vertex="1" parent="MjvKJOx-emdqVly3m24N-8">
          <mxGeometry x="45" y="87" width="10" height="80" as="geometry" />
        </mxCell>
        <mxCell id="MjvKJOx-emdqVly3m24N-10" value="" style="html=1;points=[[0,0,0,0,5],[0,1,0,0,-5],[1,0,0,0,5],[1,1,0,0,-5]];perimeter=orthogonalPerimeter;outlineConnect=0;targetShapes=umlLifeline;portConstraint=eastwest;newEdgeStyle={&quot;curved&quot;:0,&quot;rounded&quot;:0};strokeColor=#0F8B8D;fontColor=#143642;fillColor=#FAE5C7;sketch=1;curveFitting=1;jiggle=2;labelBackgroundColor=none;" vertex="1" parent="MjvKJOx-emdqVly3m24N-8">
          <mxGeometry x="45" y="240" width="10" height="80" as="geometry" />
        </mxCell>
        <mxCell id="MjvKJOx-emdqVly3m24N-11" value="" style="html=1;points=[[0,0,0,0,5],[0,1,0,0,-5],[1,0,0,0,5],[1,1,0,0,-5]];perimeter=orthogonalPerimeter;outlineConnect=0;targetShapes=umlLifeline;portConstraint=eastwest;newEdgeStyle={&quot;curved&quot;:0,&quot;rounded&quot;:0};sketch=1;hachureGap=4;jiggle=2;curveFitting=1;strokeColor=#0F8B8D;fontFamily=Architects Daughter;fontSource=https%3A%2F%2Ffonts.googleapis.com%2Fcss%3Ffamily%3DArchitects%2BDaughter;fontColor=#143642;fillColor=#FAE5C7;" vertex="1" parent="MjvKJOx-emdqVly3m24N-8">
          <mxGeometry x="45" y="574" width="10" height="80" as="geometry" />
        </mxCell>
        <mxCell id="MjvKJOx-emdqVly3m24N-98" value="" style="html=1;points=[[0,0,0,0,5],[0,1,0,0,-5],[1,0,0,0,5],[1,1,0,0,-5]];perimeter=orthogonalPerimeter;outlineConnect=0;targetShapes=umlLifeline;portConstraint=eastwest;newEdgeStyle={&quot;curved&quot;:0,&quot;rounded&quot;:0};sketch=1;hachureGap=4;jiggle=2;curveFitting=1;strokeColor=#0F8B8D;fontFamily=Architects Daughter;fontSource=https%3A%2F%2Ffonts.googleapis.com%2Fcss%3Ffamily%3DArchitects%2BDaughter;fontColor=#143642;fillColor=#FAE5C7;" vertex="1" parent="MjvKJOx-emdqVly3m24N-8">
          <mxGeometry x="43" y="768" width="10" height="80" as="geometry" />
        </mxCell>
        <mxCell id="MjvKJOx-emdqVly3m24N-118" value="" style="html=1;points=[[0,0,0,0,5],[0,1,0,0,-5],[1,0,0,0,5],[1,1,0,0,-5]];perimeter=orthogonalPerimeter;outlineConnect=0;targetShapes=umlLifeline;portConstraint=eastwest;newEdgeStyle={&quot;curved&quot;:0,&quot;rounded&quot;:0};sketch=1;hachureGap=4;jiggle=2;curveFitting=1;strokeColor=#0F8B8D;fontFamily=Architects Daughter;fontSource=https%3A%2F%2Ffonts.googleapis.com%2Fcss%3Ffamily%3DArchitects%2BDaughter;fontColor=#143642;fillColor=#FAE5C7;" vertex="1" parent="MjvKJOx-emdqVly3m24N-8">
          <mxGeometry x="44" y="924" width="10" height="80" as="geometry" />
        </mxCell>
        <mxCell id="MjvKJOx-emdqVly3m24N-14" style="edgeStyle=orthogonalEdgeStyle;rounded=0;orthogonalLoop=1;jettySize=auto;html=1;curved=0;exitX=1;exitY=0;exitDx=0;exitDy=5;exitPerimeter=0;strokeColor=#A8201A;fontColor=default;fillColor=#FAE5C7;sketch=1;curveFitting=1;jiggle=2;labelBackgroundColor=none;" edge="1" parent="1" target="MjvKJOx-emdqVly3m24N-9">
          <mxGeometry relative="1" as="geometry">
            <mxPoint x="333" y="156" as="sourcePoint" />
            <mxPoint x="544" y="156" as="targetPoint" />
            <Array as="points">
              <mxPoint x="333" y="157" />
            </Array>
          </mxGeometry>
        </mxCell>
        <mxCell id="MjvKJOx-emdqVly3m24N-15" value="request where&amp;nbsp;&lt;span style=&quot;text-wrap-mode: wrap;&quot;&gt;appointment&lt;/span&gt;" style="text;html=1;align=center;verticalAlign=middle;resizable=0;points=[];autosize=1;strokeColor=none;fillColor=none;fontColor=#143642;sketch=1;curveFitting=1;jiggle=2;labelBackgroundColor=none;" vertex="1" parent="1">
          <mxGeometry x="338" y="133" width="163" height="26" as="geometry" />
        </mxCell>
        <mxCell id="MjvKJOx-emdqVly3m24N-16" style="edgeStyle=orthogonalEdgeStyle;rounded=0;orthogonalLoop=1;jettySize=auto;html=1;curved=0;exitX=0;exitY=0.763;exitDx=0;exitDy=0;exitPerimeter=0;entryX=1;entryY=1;entryDx=0;entryDy=-5;entryPerimeter=0;strokeColor=#A8201A;fontColor=default;fillColor=#FAE5C7;dashed=1;dashPattern=8 8;sketch=1;curveFitting=1;jiggle=2;labelBackgroundColor=none;" edge="1" parent="1">
          <mxGeometry relative="1" as="geometry">
            <mxPoint x="502" y="184.03999999999996" as="sourcePoint" />
            <mxPoint x="333" y="183" as="targetPoint" />
          </mxGeometry>
        </mxCell>
        <mxCell id="MjvKJOx-emdqVly3m24N-17" value="response" style="text;html=1;align=center;verticalAlign=middle;resizable=0;points=[];autosize=1;strokeColor=none;fillColor=none;fontColor=#143642;sketch=1;curveFitting=1;jiggle=2;labelBackgroundColor=none;" vertex="1" parent="1">
          <mxGeometry x="388" y="164" width="67" height="26" as="geometry" />
        </mxCell>
        <mxCell id="MjvKJOx-emdqVly3m24N-18" value="appointment controller" style="shape=umlLifeline;perimeter=lifelinePerimeter;whiteSpace=wrap;html=1;container=1;dropTarget=0;collapsible=0;recursiveResize=0;outlineConnect=0;portConstraint=eastwest;newEdgeStyle={&quot;curved&quot;:0,&quot;rounded&quot;:0};strokeColor=#0F8B8D;fontColor=#143642;fillColor=#FAE5C7;sketch=1;curveFitting=1;jiggle=2;labelBackgroundColor=none;" vertex="1" parent="1">
          <mxGeometry x="281" y="60" width="100" height="1231" as="geometry" />
        </mxCell>
        <mxCell id="MjvKJOx-emdqVly3m24N-19" value="" style="html=1;points=[[0,0,0,0,5],[0,1,0,0,-5],[1,0,0,0,5],[1,1,0,0,-5]];perimeter=orthogonalPerimeter;outlineConnect=0;targetShapes=umlLifeline;portConstraint=eastwest;newEdgeStyle={&quot;curved&quot;:0,&quot;rounded&quot;:0};strokeColor=#0F8B8D;fontColor=#143642;fillColor=#FAE5C7;sketch=1;curveFitting=1;jiggle=2;labelBackgroundColor=none;" vertex="1" parent="MjvKJOx-emdqVly3m24N-18">
          <mxGeometry x="45" y="87" width="10" height="313" as="geometry" />
        </mxCell>
        <mxCell id="MjvKJOx-emdqVly3m24N-111" value="" style="html=1;points=[[0,0,0,0,5],[0,1,0,0,-5],[1,0,0,0,5],[1,1,0,0,-5]];perimeter=orthogonalPerimeter;outlineConnect=0;targetShapes=umlLifeline;portConstraint=eastwest;newEdgeStyle={&quot;curved&quot;:0,&quot;rounded&quot;:0};sketch=1;hachureGap=4;jiggle=2;curveFitting=1;strokeColor=#0F8B8D;fontFamily=Architects Daughter;fontSource=https%3A%2F%2Ffonts.googleapis.com%2Fcss%3Ffamily%3DArchitects%2BDaughter;fontColor=#143642;fillColor=#FAE5C7;" vertex="1" parent="MjvKJOx-emdqVly3m24N-18">
          <mxGeometry x="45" y="887" width="10" height="142" as="geometry" />
        </mxCell>
        <mxCell id="MjvKJOx-emdqVly3m24N-130" value="" style="html=1;points=[[0,0,0,0,5],[0,1,0,0,-5],[1,0,0,0,5],[1,1,0,0,-5]];perimeter=orthogonalPerimeter;outlineConnect=0;targetShapes=umlLifeline;portConstraint=eastwest;newEdgeStyle={&quot;curved&quot;:0,&quot;rounded&quot;:0};sketch=1;hachureGap=4;jiggle=2;curveFitting=1;strokeColor=#0F8B8D;fontFamily=Architects Daughter;fontSource=https%3A%2F%2Ffonts.googleapis.com%2Fcss%3Ffamily%3DArchitects%2BDaughter;fontColor=#143642;fillColor=#FAE5C7;" vertex="1" parent="MjvKJOx-emdqVly3m24N-18">
          <mxGeometry x="43" y="1047" width="10" height="148" as="geometry" />
        </mxCell>
        <mxCell id="MjvKJOx-emdqVly3m24N-20" style="edgeStyle=orthogonalEdgeStyle;rounded=0;orthogonalLoop=1;jettySize=auto;html=1;curved=0;exitX=1;exitY=0;exitDx=0;exitDy=5;exitPerimeter=0;entryX=0;entryY=0;entryDx=0;entryDy=5;entryPerimeter=0;strokeColor=#A8201A;fontColor=default;fillColor=#FAE5C7;sketch=1;curveFitting=1;jiggle=2;labelBackgroundColor=none;" edge="1" parent="1">
          <mxGeometry relative="1" as="geometry">
            <mxPoint x="114" y="152" as="sourcePoint" />
            <mxPoint x="326" y="152" as="targetPoint" />
          </mxGeometry>
        </mxCell>
        <mxCell id="MjvKJOx-emdqVly3m24N-21" value="request" style="text;html=1;align=center;verticalAlign=middle;resizable=0;points=[];autosize=1;strokeColor=none;fillColor=none;fontColor=#143642;sketch=1;curveFitting=1;jiggle=2;labelBackgroundColor=none;" vertex="1" parent="1">
          <mxGeometry x="189" y="128" width="58" height="26" as="geometry" />
        </mxCell>
        <mxCell id="MjvKJOx-emdqVly3m24N-22" style="edgeStyle=orthogonalEdgeStyle;rounded=0;orthogonalLoop=1;jettySize=auto;html=1;curved=0;exitX=0;exitY=1;exitDx=0;exitDy=-5;exitPerimeter=0;entryX=1;entryY=1;entryDx=0;entryDy=-5;entryPerimeter=0;strokeColor=#A8201A;fontColor=default;fillColor=#FAE5C7;dashed=1;dashPattern=8 8;sketch=1;curveFitting=1;jiggle=2;labelBackgroundColor=none;" edge="1" parent="1">
          <mxGeometry relative="1" as="geometry">
            <mxPoint x="326" y="202" as="sourcePoint" />
            <mxPoint x="114" y="202" as="targetPoint" />
            <Array as="points">
              <mxPoint x="114" y="202" />
            </Array>
          </mxGeometry>
        </mxCell>
        <mxCell id="MjvKJOx-emdqVly3m24N-23" value="response" style="text;html=1;align=center;verticalAlign=middle;resizable=0;points=[];autosize=1;strokeColor=none;fillColor=none;fontColor=#143642;sketch=1;curveFitting=1;jiggle=2;labelBackgroundColor=none;" vertex="1" parent="1">
          <mxGeometry x="183" y="176" width="67" height="26" as="geometry" />
        </mxCell>
        <mxCell id="MjvKJOx-emdqVly3m24N-24" style="edgeStyle=orthogonalEdgeStyle;rounded=0;orthogonalLoop=1;jettySize=auto;html=1;curved=0;exitX=1;exitY=1;exitDx=0;exitDy=-5;exitPerimeter=0;entryX=0;entryY=1;entryDx=0;entryDy=-5;entryPerimeter=0;strokeColor=#A8201A;fontColor=default;fillColor=#FAE5C7;sketch=1;curveFitting=1;jiggle=2;labelBackgroundColor=none;dashed=1;dashPattern=8 8;" edge="1" parent="1">
          <mxGeometry relative="1" as="geometry">
            <mxPoint x="104" y="229" as="sourcePoint" />
            <mxPoint x="-92" y="229" as="targetPoint" />
          </mxGeometry>
        </mxCell>
        <mxCell id="MjvKJOx-emdqVly3m24N-25" value="show&amp;nbsp;&lt;span style=&quot;text-wrap-mode: wrap;&quot;&gt;appointment list&lt;/span&gt;" style="text;html=1;align=center;verticalAlign=middle;resizable=0;points=[];autosize=1;strokeColor=none;fillColor=none;fontColor=#143642;sketch=1;curveFitting=1;jiggle=2;labelBackgroundColor=none;" vertex="1" parent="1">
          <mxGeometry x="-60" y="206" width="133" height="26" as="geometry" />
        </mxCell>
        <mxCell id="MjvKJOx-emdqVly3m24N-26" style="edgeStyle=orthogonalEdgeStyle;rounded=0;orthogonalLoop=1;jettySize=auto;html=1;curved=0;exitX=1;exitY=1;exitDx=0;exitDy=-5;exitPerimeter=0;entryX=0;entryY=1;entryDx=0;entryDy=-5;entryPerimeter=0;strokeColor=#A8201A;fontColor=default;fillColor=#FAE5C7;sketch=1;curveFitting=1;jiggle=2;labelBackgroundColor=none;" edge="1" parent="1">
          <mxGeometry relative="1" as="geometry">
            <mxPoint x="-92" y="267" as="sourcePoint" />
            <mxPoint x="104" y="267" as="targetPoint" />
          </mxGeometry>
        </mxCell>
        <mxCell id="MjvKJOx-emdqVly3m24N-27" value="select a&amp;nbsp;&lt;span style=&quot;text-wrap-mode: wrap;&quot;&gt;appointment&lt;/span&gt;" style="text;html=1;align=center;verticalAlign=middle;resizable=0;points=[];autosize=1;strokeColor=none;fillColor=none;fontColor=#143642;sketch=1;curveFitting=1;jiggle=2;labelBackgroundColor=none;" vertex="1" parent="1">
          <mxGeometry x="-61" y="244" width="129" height="26" as="geometry" />
        </mxCell>
        <mxCell id="MjvKJOx-emdqVly3m24N-28" style="edgeStyle=orthogonalEdgeStyle;rounded=0;orthogonalLoop=1;jettySize=auto;html=1;curved=0;strokeColor=#A8201A;fontColor=default;fillColor=#FAE5C7;sketch=1;curveFitting=1;jiggle=2;labelBackgroundColor=none;" edge="1" parent="1" source="MjvKJOx-emdqVly3m24N-4">
          <mxGeometry relative="1" as="geometry">
            <mxPoint x="328" y="291" as="targetPoint" />
            <Array as="points">
              <mxPoint x="326" y="289" />
              <mxPoint x="326" y="291" />
            </Array>
          </mxGeometry>
        </mxCell>
        <mxCell id="MjvKJOx-emdqVly3m24N-29" value="get details for&amp;nbsp;&lt;span style=&quot;text-wrap-mode: wrap;&quot;&gt;appointment&lt;/span&gt;" style="text;html=1;align=center;verticalAlign=middle;resizable=0;points=[];autosize=1;strokeColor=none;fillColor=none;fontColor=#143642;sketch=1;curveFitting=1;jiggle=2;labelBackgroundColor=none;" vertex="1" parent="1">
          <mxGeometry x="138" y="266" width="159" height="26" as="geometry" />
        </mxCell>
        <mxCell id="MjvKJOx-emdqVly3m24N-30" style="edgeStyle=orthogonalEdgeStyle;rounded=0;orthogonalLoop=1;jettySize=auto;html=1;curved=0;exitX=1;exitY=1;exitDx=0;exitDy=-5;exitPerimeter=0;entryX=0;entryY=1;entryDx=0;entryDy=-5;entryPerimeter=0;strokeColor=#A8201A;fontColor=default;fillColor=#FAE5C7;sketch=1;curveFitting=1;jiggle=2;labelBackgroundColor=none;" edge="1" parent="1">
          <mxGeometry relative="1" as="geometry">
            <mxPoint x="336" y="308" as="sourcePoint" />
            <mxPoint x="502" y="308" as="targetPoint" />
          </mxGeometry>
        </mxCell>
        <mxCell id="MjvKJOx-emdqVly3m24N-31" value="request where details" style="text;html=1;align=center;verticalAlign=middle;resizable=0;points=[];autosize=1;strokeColor=none;fillColor=none;fontColor=#143642;sketch=1;curveFitting=1;jiggle=2;labelBackgroundColor=none;" vertex="1" parent="1">
          <mxGeometry x="351" y="285" width="132" height="26" as="geometry" />
        </mxCell>
        <mxCell id="MjvKJOx-emdqVly3m24N-32" style="edgeStyle=orthogonalEdgeStyle;rounded=0;orthogonalLoop=1;jettySize=auto;html=1;curved=0;exitX=0;exitY=1;exitDx=0;exitDy=-5;exitPerimeter=0;entryX=1;entryY=1;entryDx=0;entryDy=-5;entryPerimeter=0;strokeColor=#A8201A;fontColor=default;fillColor=#FAE5C7;dashed=1;dashPattern=8 8;sketch=1;curveFitting=1;jiggle=2;labelBackgroundColor=none;" edge="1" parent="1">
          <mxGeometry relative="1" as="geometry">
            <mxPoint x="502" y="343" as="sourcePoint" />
            <mxPoint x="336" y="343" as="targetPoint" />
          </mxGeometry>
        </mxCell>
        <mxCell id="MjvKJOx-emdqVly3m24N-33" value="response" style="text;html=1;align=center;verticalAlign=middle;resizable=0;points=[];autosize=1;strokeColor=none;fillColor=none;fontColor=#143642;sketch=1;curveFitting=1;jiggle=2;labelBackgroundColor=none;" vertex="1" parent="1">
          <mxGeometry x="384" y="322" width="67" height="26" as="geometry" />
        </mxCell>
        <mxCell id="MjvKJOx-emdqVly3m24N-34" value="appointment" style="shape=umlLifeline;perimeter=lifelinePerimeter;whiteSpace=wrap;html=1;container=1;dropTarget=0;collapsible=0;recursiveResize=0;outlineConnect=0;portConstraint=eastwest;newEdgeStyle={&quot;curved&quot;:0,&quot;rounded&quot;:0};strokeColor=#0F8B8D;fontColor=#143642;fillColor=#FAE5C7;sketch=1;curveFitting=1;jiggle=2;labelBackgroundColor=none;" vertex="1" parent="1">
          <mxGeometry x="660" y="60" width="100" height="798" as="geometry" />
        </mxCell>
        <mxCell id="MjvKJOx-emdqVly3m24N-35" value="" style="html=1;points=[[0,0,0,0,5],[0,1,0,0,-5],[1,0,0,0,5],[1,1,0,0,-5]];perimeter=orthogonalPerimeter;outlineConnect=0;targetShapes=umlLifeline;portConstraint=eastwest;newEdgeStyle={&quot;curved&quot;:0,&quot;rounded&quot;:0};strokeColor=#0F8B8D;fontColor=#143642;fillColor=#FAE5C7;sketch=1;curveFitting=1;jiggle=2;labelBackgroundColor=none;" vertex="1" parent="MjvKJOx-emdqVly3m24N-34">
          <mxGeometry x="45" y="343" width="10" height="411" as="geometry" />
        </mxCell>
        <mxCell id="MjvKJOx-emdqVly3m24N-37" style="edgeStyle=orthogonalEdgeStyle;rounded=0;orthogonalLoop=1;jettySize=auto;html=1;curved=0;exitX=1;exitY=1;exitDx=0;exitDy=-5;exitPerimeter=0;entryX=0;entryY=0;entryDx=0;entryDy=5;entryPerimeter=0;strokeColor=#A8201A;fontColor=default;fillColor=#FAE5C7;sketch=1;curveFitting=1;jiggle=2;labelBackgroundColor=none;dashed=1;dashPattern=8 8;" edge="1" parent="1">
          <mxGeometry relative="1" as="geometry">
            <mxPoint x="336" y="411" as="sourcePoint" />
            <mxPoint x="705" y="411" as="targetPoint" />
          </mxGeometry>
        </mxCell>
        <mxCell id="MjvKJOx-emdqVly3m24N-38" value="details appionment and ability" style="text;html=1;align=center;verticalAlign=middle;resizable=0;points=[];autosize=1;strokeColor=none;fillColor=none;fontColor=#143642;sketch=1;curveFitting=1;jiggle=2;labelBackgroundColor=none;" vertex="1" parent="1">
          <mxGeometry x="512" y="389" width="176" height="26" as="geometry" />
        </mxCell>
        <mxCell id="MjvKJOx-emdqVly3m24N-39" style="edgeStyle=orthogonalEdgeStyle;rounded=0;hachureGap=4;orthogonalLoop=1;jettySize=auto;html=1;curved=0;exitX=0;exitY=1;exitDx=0;exitDy=-5;exitPerimeter=0;entryX=1;entryY=1;entryDx=0;entryDy=-5;entryPerimeter=0;strokeColor=#A8201A;fontFamily=Architects Daughter;fontSource=https%3A%2F%2Ffonts.googleapis.com%2Fcss%3Ffamily%3DArchitects%2BDaughter;fontColor=default;fillColor=#FAE5C7;sketch=1;curveFitting=1;jiggle=2;labelBackgroundColor=none;" edge="1" parent="1">
          <mxGeometry relative="1" as="geometry">
            <mxPoint x="705" y="499" as="sourcePoint" />
            <mxPoint x="-92" y="499" as="targetPoint" />
          </mxGeometry>
        </mxCell>
        <mxCell id="MjvKJOx-emdqVly3m24N-40" value="show details and ability" style="text;html=1;align=center;verticalAlign=middle;resizable=0;points=[];autosize=1;strokeColor=none;fillColor=none;fontColor=#143642;sketch=1;curveFitting=1;jiggle=2;labelBackgroundColor=none;" vertex="1" parent="1">
          <mxGeometry x="270" y="476" width="141" height="26" as="geometry" />
        </mxCell>
        <mxCell id="MjvKJOx-emdqVly3m24N-41" value="&lt;font face=&quot;Helvetica&quot;&gt;session controller&lt;/font&gt;" style="shape=umlLifeline;perimeter=lifelinePerimeter;whiteSpace=wrap;html=1;container=1;dropTarget=0;collapsible=0;recursiveResize=0;outlineConnect=0;portConstraint=eastwest;newEdgeStyle={&quot;curved&quot;:0,&quot;rounded&quot;:0};hachureGap=4;strokeColor=#0F8B8D;fontFamily=Architects Daughter;fontSource=https%3A%2F%2Ffonts.googleapis.com%2Fcss%3Ffamily%3DArchitects%2BDaughter;fontColor=#143642;fillColor=#FAE5C7;sketch=1;curveFitting=1;jiggle=2;labelBackgroundColor=none;" vertex="1" parent="1">
          <mxGeometry x="837" y="60" width="100" height="775" as="geometry" />
        </mxCell>
        <mxCell id="MjvKJOx-emdqVly3m24N-42" value="" style="html=1;points=[[0,0,0,0,5],[0,1,0,0,-5],[1,0,0,0,5],[1,1,0,0,-5]];perimeter=orthogonalPerimeter;outlineConnect=0;targetShapes=umlLifeline;portConstraint=eastwest;newEdgeStyle={&quot;curved&quot;:0,&quot;rounded&quot;:0};sketch=1;hachureGap=4;jiggle=2;curveFitting=1;strokeColor=#0F8B8D;fontFamily=Architects Daughter;fontSource=https%3A%2F%2Ffonts.googleapis.com%2Fcss%3Ffamily%3DArchitects%2BDaughter;fontColor=#143642;fillColor=#FAE5C7;" vertex="1" parent="MjvKJOx-emdqVly3m24N-41">
          <mxGeometry x="45" y="483" width="10" height="243" as="geometry" />
        </mxCell>
        <mxCell id="MjvKJOx-emdqVly3m24N-96" style="edgeStyle=orthogonalEdgeStyle;rounded=0;sketch=1;hachureGap=4;jiggle=2;curveFitting=1;orthogonalLoop=1;jettySize=auto;html=1;curved=0;exitX=1;exitY=0;exitDx=0;exitDy=5;exitPerimeter=0;strokeColor=#A8201A;fontFamily=Architects Daughter;fontSource=https%3A%2F%2Ffonts.googleapis.com%2Fcss%3Ffamily%3DArchitects%2BDaughter;fontColor=#143642;fillColor=#FAE5C7;" edge="1" parent="MjvKJOx-emdqVly3m24N-41">
          <mxGeometry relative="1" as="geometry">
            <mxPoint x="55" y="503" as="sourcePoint" />
            <mxPoint x="55" y="574" as="targetPoint" />
            <Array as="points">
              <mxPoint x="113" y="503" />
              <mxPoint x="113" y="574" />
            </Array>
          </mxGeometry>
        </mxCell>
        <mxCell id="MjvKJOx-emdqVly3m24N-43" style="edgeStyle=orthogonalEdgeStyle;rounded=0;sketch=1;hachureGap=4;jiggle=2;curveFitting=1;orthogonalLoop=1;jettySize=auto;html=1;curved=0;exitX=1;exitY=1;exitDx=0;exitDy=-5;exitPerimeter=0;entryX=0;entryY=1;entryDx=0;entryDy=-5;entryPerimeter=0;fontFamily=Architects Daughter;fontSource=https%3A%2F%2Ffonts.googleapis.com%2Fcss%3Ffamily%3DArchitects%2BDaughter;labelBackgroundColor=none;strokeColor=#A8201A;fontColor=default;" edge="1" parent="1">
          <mxGeometry relative="1" as="geometry">
            <mxPoint x="-92" y="536" as="sourcePoint" />
            <mxPoint x="705" y="536" as="targetPoint" />
          </mxGeometry>
        </mxCell>
        <mxCell id="MjvKJOx-emdqVly3m24N-44" value="create session and open" style="text;html=1;align=center;verticalAlign=middle;resizable=0;points=[];autosize=1;strokeColor=none;fillColor=none;fontColor=#143642;sketch=1;curveFitting=1;jiggle=2;labelBackgroundColor=none;" vertex="1" parent="1">
          <mxGeometry x="264" y="510" width="149" height="26" as="geometry" />
        </mxCell>
        <mxCell id="MjvKJOx-emdqVly3m24N-45" style="edgeStyle=orthogonalEdgeStyle;rounded=0;sketch=1;hachureGap=4;jiggle=2;curveFitting=1;orthogonalLoop=1;jettySize=auto;html=1;curved=0;exitX=1;exitY=1;exitDx=0;exitDy=-5;exitPerimeter=0;entryX=0;entryY=1;entryDx=0;entryDy=-5;entryPerimeter=0;strokeColor=#A8201A;fontFamily=Architects Daughter;fontSource=https%3A%2F%2Ffonts.googleapis.com%2Fcss%3Ffamily%3DArchitects%2BDaughter;fontColor=#143642;fillColor=#FAE5C7;" edge="1" parent="1">
          <mxGeometry relative="1" as="geometry">
            <mxPoint x="715" y="554" as="sourcePoint" />
            <mxPoint x="882" y="554" as="targetPoint" />
          </mxGeometry>
        </mxCell>
        <mxCell id="MjvKJOx-emdqVly3m24N-46" value="create session" style="text;html=1;align=center;verticalAlign=middle;resizable=0;points=[];autosize=1;strokeColor=none;fillColor=none;fontColor=#143642;sketch=1;curveFitting=1;jiggle=2;labelBackgroundColor=none;" vertex="1" parent="1">
          <mxGeometry x="752" y="529" width="95" height="26" as="geometry" />
        </mxCell>
        <mxCell id="MjvKJOx-emdqVly3m24N-47" style="edgeStyle=orthogonalEdgeStyle;rounded=0;sketch=1;hachureGap=4;jiggle=2;curveFitting=1;orthogonalLoop=1;jettySize=auto;html=1;curved=0;exitX=0;exitY=1;exitDx=0;exitDy=-5;exitPerimeter=0;entryX=1;entryY=0;entryDx=0;entryDy=5;entryPerimeter=0;strokeColor=#A8201A;fontFamily=Architects Daughter;fontSource=https%3A%2F%2Ffonts.googleapis.com%2Fcss%3Ffamily%3DArchitects%2BDaughter;fontColor=#143642;fillColor=#FAE5C7;" edge="1" parent="1">
          <mxGeometry relative="1" as="geometry">
            <mxPoint x="882" y="640" as="sourcePoint" />
            <mxPoint x="512" y="640" as="targetPoint" />
          </mxGeometry>
        </mxCell>
        <mxCell id="MjvKJOx-emdqVly3m24N-48" value="request store session" style="text;html=1;align=center;verticalAlign=middle;resizable=0;points=[];autosize=1;strokeColor=none;fillColor=none;fontColor=#143642;sketch=1;curveFitting=1;jiggle=2;labelBackgroundColor=none;" vertex="1" parent="1">
          <mxGeometry x="644.5" y="615" width="132" height="26" as="geometry" />
        </mxCell>
        <mxCell id="MjvKJOx-emdqVly3m24N-49" style="edgeStyle=orthogonalEdgeStyle;rounded=0;sketch=1;hachureGap=4;jiggle=2;curveFitting=1;orthogonalLoop=1;jettySize=auto;html=1;curved=0;exitX=1;exitY=1;exitDx=0;exitDy=-5;exitPerimeter=0;entryX=0;entryY=1;entryDx=0;entryDy=-5;entryPerimeter=0;strokeColor=#A8201A;fontFamily=Architects Daughter;fontSource=https%3A%2F%2Ffonts.googleapis.com%2Fcss%3Ffamily%3DArchitects%2BDaughter;fontColor=#143642;fillColor=#FAE5C7;dashed=1;dashPattern=8 8;" edge="1" parent="1">
          <mxGeometry relative="1" as="geometry">
            <mxPoint x="512" y="695" as="sourcePoint" />
            <mxPoint x="882" y="695" as="targetPoint" />
          </mxGeometry>
        </mxCell>
        <mxCell id="MjvKJOx-emdqVly3m24N-50" value="respons" style="text;html=1;align=center;verticalAlign=middle;resizable=0;points=[];autosize=1;strokeColor=none;fillColor=none;fontColor=#143642;sketch=1;curveFitting=1;jiggle=2;labelBackgroundColor=none;" vertex="1" parent="1">
          <mxGeometry x="679.5" y="675" width="61" height="26" as="geometry" />
        </mxCell>
        <mxCell id="MjvKJOx-emdqVly3m24N-51" style="edgeStyle=orthogonalEdgeStyle;rounded=0;sketch=1;hachureGap=4;jiggle=2;curveFitting=1;orthogonalLoop=1;jettySize=auto;html=1;curved=0;exitX=0;exitY=1;exitDx=0;exitDy=-5;exitPerimeter=0;strokeColor=#A8201A;fontFamily=Architects Daughter;fontSource=https%3A%2F%2Ffonts.googleapis.com%2Fcss%3Ffamily%3DArchitects%2BDaughter;fontColor=#143642;fillColor=#FAE5C7;dashed=1;dashPattern=8 8;" edge="1" parent="1">
          <mxGeometry relative="1" as="geometry">
            <mxPoint x="882" y="746" as="sourcePoint" />
            <mxPoint x="-86" y="746" as="targetPoint" />
          </mxGeometry>
        </mxCell>
        <mxCell id="MjvKJOx-emdqVly3m24N-52" value="open session" style="text;html=1;align=center;verticalAlign=middle;resizable=0;points=[];autosize=1;strokeColor=none;fillColor=none;fontColor=#143642;sketch=1;curveFitting=1;jiggle=2;labelBackgroundColor=none;" vertex="1" parent="1">
          <mxGeometry x="373" y="715" width="89" height="26" as="geometry" />
        </mxCell>
        <mxCell id="MjvKJOx-emdqVly3m24N-63" value="&lt;font face=&quot;Helvetica&quot;&gt;notification controller&lt;/font&gt;" style="shape=umlLifeline;perimeter=lifelinePerimeter;whiteSpace=wrap;html=1;container=1;dropTarget=0;collapsible=0;recursiveResize=0;outlineConnect=0;portConstraint=eastwest;newEdgeStyle={&quot;curved&quot;:0,&quot;rounded&quot;:0};hachureGap=4;strokeColor=#0F8B8D;fontFamily=Architects Daughter;fontSource=https%3A%2F%2Ffonts.googleapis.com%2Fcss%3Ffamily%3DArchitects%2BDaughter;fontColor=#143642;fillColor=#FAE5C7;sketch=1;curveFitting=1;jiggle=2;labelBackgroundColor=none;" vertex="1" parent="1">
          <mxGeometry x="1077" y="60" width="100" height="953" as="geometry" />
        </mxCell>
        <mxCell id="MjvKJOx-emdqVly3m24N-99" value="" style="html=1;points=[[0,0,0,0,5],[0,1,0,0,-5],[1,0,0,0,5],[1,1,0,0,-5]];perimeter=orthogonalPerimeter;outlineConnect=0;targetShapes=umlLifeline;portConstraint=eastwest;newEdgeStyle={&quot;curved&quot;:0,&quot;rounded&quot;:0};sketch=1;hachureGap=4;jiggle=2;curveFitting=1;strokeColor=#0F8B8D;fontFamily=Architects Daughter;fontSource=https%3A%2F%2Ffonts.googleapis.com%2Fcss%3Ffamily%3DArchitects%2BDaughter;fontColor=#143642;fillColor=#FAE5C7;" vertex="1" parent="MjvKJOx-emdqVly3m24N-63">
          <mxGeometry x="45" y="768" width="10" height="80" as="geometry" />
        </mxCell>
        <mxCell id="MjvKJOx-emdqVly3m24N-67" value="&lt;font face=&quot;Helvetica&quot;&gt;appointment&lt;/font&gt;" style="shape=umlLifeline;perimeter=lifelinePerimeter;whiteSpace=wrap;html=1;container=1;dropTarget=0;collapsible=0;recursiveResize=0;outlineConnect=0;portConstraint=eastwest;newEdgeStyle={&quot;curved&quot;:0,&quot;rounded&quot;:0};hachureGap=4;strokeColor=#0F8B8D;fontFamily=Architects Daughter;fontSource=https%3A%2F%2Ffonts.googleapis.com%2Fcss%3Ffamily%3DArchitects%2BDaughter;fontColor=#143642;fillColor=#FAE5C7;sketch=1;curveFitting=1;jiggle=2;labelBackgroundColor=none;" vertex="1" parent="1">
          <mxGeometry x="1342" y="60" width="100" height="1339" as="geometry" />
        </mxCell>
        <mxCell id="MjvKJOx-emdqVly3m24N-127" value="" style="html=1;points=[[0,0,0,0,5],[0,1,0,0,-5],[1,0,0,0,5],[1,1,0,0,-5]];perimeter=orthogonalPerimeter;outlineConnect=0;targetShapes=umlLifeline;portConstraint=eastwest;newEdgeStyle={&quot;curved&quot;:0,&quot;rounded&quot;:0};sketch=1;hachureGap=4;jiggle=2;curveFitting=1;strokeColor=#0F8B8D;fontFamily=Architects Daughter;fontSource=https%3A%2F%2Ffonts.googleapis.com%2Fcss%3Ffamily%3DArchitects%2BDaughter;fontColor=#143642;fillColor=#FAE5C7;" vertex="1" parent="MjvKJOx-emdqVly3m24N-67">
          <mxGeometry x="45" y="1151" width="10" height="80" as="geometry" />
        </mxCell>
        <mxCell id="MjvKJOx-emdqVly3m24N-79" value="&lt;font face=&quot;Helvetica&quot;&gt;list of appointment page&lt;/font&gt;" style="shape=umlLifeline;perimeter=lifelinePerimeter;whiteSpace=wrap;html=1;container=1;dropTarget=0;collapsible=0;recursiveResize=0;outlineConnect=0;portConstraint=eastwest;newEdgeStyle={&quot;curved&quot;:0,&quot;rounded&quot;:0};hachureGap=4;strokeColor=#0F8B8D;fontFamily=Architects Daughter;fontSource=https%3A%2F%2Ffonts.googleapis.com%2Fcss%3Ffamily%3DArchitects%2BDaughter;fontColor=#143642;fillColor=#FAE5C7;sketch=1;curveFitting=1;jiggle=2;labelBackgroundColor=none;" vertex="1" parent="1">
          <mxGeometry x="1532" y="60" width="100" height="1135" as="geometry" />
        </mxCell>
        <mxCell id="MjvKJOx-emdqVly3m24N-108" value="" style="html=1;points=[[0,0,0,0,5],[0,1,0,0,-5],[1,0,0,0,5],[1,1,0,0,-5]];perimeter=orthogonalPerimeter;outlineConnect=0;targetShapes=umlLifeline;portConstraint=eastwest;newEdgeStyle={&quot;curved&quot;:0,&quot;rounded&quot;:0};sketch=1;hachureGap=4;jiggle=2;curveFitting=1;strokeColor=#0F8B8D;fontFamily=Architects Daughter;fontSource=https%3A%2F%2Ffonts.googleapis.com%2Fcss%3Ffamily%3DArchitects%2BDaughter;fontColor=#143642;fillColor=#FAE5C7;" vertex="1" parent="MjvKJOx-emdqVly3m24N-79">
          <mxGeometry x="42" y="873" width="10" height="216" as="geometry" />
        </mxCell>
        <mxCell id="MjvKJOx-emdqVly3m24N-97" value="send request for meet context and get url" style="text;html=1;align=center;verticalAlign=middle;resizable=0;points=[];autosize=1;strokeColor=none;fillColor=none;fontColor=#143642;sketch=1;curveFitting=1;jiggle=2;labelBackgroundColor=none;" vertex="1" parent="1">
          <mxGeometry x="941" y="591" width="237" height="26" as="geometry" />
        </mxCell>
        <mxCell id="MjvKJOx-emdqVly3m24N-100" style="edgeStyle=orthogonalEdgeStyle;rounded=0;sketch=1;hachureGap=4;jiggle=2;curveFitting=1;orthogonalLoop=1;jettySize=auto;html=1;curved=0;exitX=1;exitY=0;exitDx=0;exitDy=5;exitPerimeter=0;entryX=0;entryY=0;entryDx=0;entryDy=5;entryPerimeter=0;strokeColor=#A8201A;fontFamily=Architects Daughter;fontSource=https%3A%2F%2Ffonts.googleapis.com%2Fcss%3Ffamily%3DArchitects%2BDaughter;fontColor=#143642;fillColor=#FAE5C7;" edge="1" parent="1">
          <mxGeometry relative="1" as="geometry">
            <mxPoint x="1122" y="838" as="sourcePoint" />
            <mxPoint x="510" y="838" as="targetPoint" />
          </mxGeometry>
        </mxCell>
        <mxCell id="MjvKJOx-emdqVly3m24N-101" value="request where notification" style="text;html=1;align=center;verticalAlign=middle;resizable=0;points=[];autosize=1;strokeColor=none;fillColor=none;fontColor=#143642;sketch=1;curveFitting=1;jiggle=2;labelBackgroundColor=none;" vertex="1" parent="1">
          <mxGeometry x="735" y="814" width="155" height="26" as="geometry" />
        </mxCell>
        <mxCell id="MjvKJOx-emdqVly3m24N-102" style="edgeStyle=orthogonalEdgeStyle;rounded=0;sketch=1;hachureGap=4;jiggle=2;curveFitting=1;orthogonalLoop=1;jettySize=auto;html=1;curved=0;exitX=1;exitY=1;exitDx=0;exitDy=-5;exitPerimeter=0;entryX=0;entryY=1;entryDx=0;entryDy=-5;entryPerimeter=0;strokeColor=#A8201A;fontFamily=Architects Daughter;fontSource=https%3A%2F%2Ffonts.googleapis.com%2Fcss%3Ffamily%3DArchitects%2BDaughter;fontColor=#143642;fillColor=#FAE5C7;dashed=1;dashPattern=8 8;" edge="1" parent="1">
          <mxGeometry relative="1" as="geometry">
            <mxPoint x="510" y="876" as="sourcePoint" />
            <mxPoint x="1122" y="876" as="targetPoint" />
          </mxGeometry>
        </mxCell>
        <mxCell id="MjvKJOx-emdqVly3m24N-103" value="respons" style="text;html=1;align=center;verticalAlign=middle;resizable=0;points=[];autosize=1;strokeColor=none;fillColor=none;fontColor=#143642;sketch=1;curveFitting=1;jiggle=2;labelBackgroundColor=none;" vertex="1" parent="1">
          <mxGeometry x="769" y="858" width="61" height="26" as="geometry" />
        </mxCell>
        <mxCell id="MjvKJOx-emdqVly3m24N-104" value="&lt;font face=&quot;Helvetica&quot;&gt;patient&lt;/font&gt;" style="shape=umlLifeline;perimeter=lifelinePerimeter;whiteSpace=wrap;html=1;container=1;dropTarget=0;collapsible=0;recursiveResize=0;outlineConnect=0;portConstraint=eastwest;newEdgeStyle={&quot;curved&quot;:0,&quot;rounded&quot;:0};participant=umlActor;sketch=1;hachureGap=4;jiggle=2;curveFitting=1;strokeColor=#0F8B8D;fontFamily=Architects Daughter;fontSource=https%3A%2F%2Ffonts.googleapis.com%2Fcss%3Ffamily%3DArchitects%2BDaughter;fontColor=#143642;fillColor=#FAE5C7;" vertex="1" parent="1">
          <mxGeometry x="1834" y="60" width="20" height="1363" as="geometry" />
        </mxCell>
        <mxCell id="MjvKJOx-emdqVly3m24N-105" value="" style="html=1;points=[[0,0,0,0,5],[0,1,0,0,-5],[1,0,0,0,5],[1,1,0,0,-5]];perimeter=orthogonalPerimeter;outlineConnect=0;targetShapes=umlLifeline;portConstraint=eastwest;newEdgeStyle={&quot;curved&quot;:0,&quot;rounded&quot;:0};sketch=1;hachureGap=4;jiggle=2;curveFitting=1;strokeColor=#0F8B8D;fontFamily=Architects Daughter;fontSource=https%3A%2F%2Ffonts.googleapis.com%2Fcss%3Ffamily%3DArchitects%2BDaughter;fontColor=#143642;fillColor=#FAE5C7;" vertex="1" parent="MjvKJOx-emdqVly3m24N-104">
          <mxGeometry x="5" y="838" width="10" height="338" as="geometry" />
        </mxCell>
        <mxCell id="MjvKJOx-emdqVly3m24N-106" style="edgeStyle=orthogonalEdgeStyle;rounded=0;sketch=1;hachureGap=4;jiggle=2;curveFitting=1;orthogonalLoop=1;jettySize=auto;html=1;curved=0;exitX=1;exitY=1;exitDx=0;exitDy=-5;exitPerimeter=0;entryX=0;entryY=0;entryDx=0;entryDy=5;entryPerimeter=0;strokeColor=#A8201A;fontFamily=Architects Daughter;fontSource=https%3A%2F%2Ffonts.googleapis.com%2Fcss%3Ffamily%3DArchitects%2BDaughter;fontColor=#143642;fillColor=#FAE5C7;" edge="1" parent="1">
          <mxGeometry relative="1" as="geometry">
            <mxPoint x="1132" y="903" as="sourcePoint" />
            <mxPoint x="1839" y="903" as="targetPoint" />
          </mxGeometry>
        </mxCell>
        <mxCell id="MjvKJOx-emdqVly3m24N-107" value="send notification" style="text;html=1;align=center;verticalAlign=middle;resizable=0;points=[];autosize=1;strokeColor=none;fillColor=none;fontColor=#143642;sketch=1;curveFitting=1;jiggle=2;labelBackgroundColor=none;" vertex="1" parent="1">
          <mxGeometry x="1451" y="879" width="105" height="26" as="geometry" />
        </mxCell>
        <mxCell id="MjvKJOx-emdqVly3m24N-109" style="edgeStyle=orthogonalEdgeStyle;rounded=0;sketch=1;hachureGap=4;jiggle=2;curveFitting=1;orthogonalLoop=1;jettySize=auto;html=1;curved=0;exitX=0;exitY=1;exitDx=0;exitDy=-5;exitPerimeter=0;entryX=1;entryY=0;entryDx=0;entryDy=5;entryPerimeter=0;strokeColor=#A8201A;fontFamily=Architects Daughter;fontSource=https%3A%2F%2Ffonts.googleapis.com%2Fcss%3Ffamily%3DArchitects%2BDaughter;fontColor=#143642;fillColor=#FAE5C7;" edge="1" parent="1">
          <mxGeometry relative="1" as="geometry">
            <mxPoint x="1839" y="943" as="sourcePoint" />
            <mxPoint x="1587" y="943" as="targetPoint" />
          </mxGeometry>
        </mxCell>
        <mxCell id="MjvKJOx-emdqVly3m24N-110" value="view list of appointment" style="text;html=1;align=center;verticalAlign=middle;resizable=0;points=[];autosize=1;strokeColor=none;fillColor=none;fontColor=#143642;sketch=1;curveFitting=1;jiggle=2;labelBackgroundColor=none;" vertex="1" parent="1">
          <mxGeometry x="1639" y="922" width="143" height="26" as="geometry" />
        </mxCell>
        <mxCell id="MjvKJOx-emdqVly3m24N-112" style="edgeStyle=orthogonalEdgeStyle;rounded=0;sketch=1;hachureGap=4;jiggle=2;curveFitting=1;orthogonalLoop=1;jettySize=auto;html=1;curved=0;exitX=0;exitY=0;exitDx=0;exitDy=5;exitPerimeter=0;entryX=1;entryY=0;entryDx=0;entryDy=5;entryPerimeter=0;strokeColor=#A8201A;fontFamily=Architects Daughter;fontSource=https%3A%2F%2Ffonts.googleapis.com%2Fcss%3Ffamily%3DArchitects%2BDaughter;fontColor=#143642;fillColor=#FAE5C7;" edge="1" parent="1">
          <mxGeometry relative="1" as="geometry">
            <mxPoint x="1577" y="953" as="sourcePoint" />
            <mxPoint x="336" y="953" as="targetPoint" />
          </mxGeometry>
        </mxCell>
        <mxCell id="MjvKJOx-emdqVly3m24N-113" value="get list of appointment" style="text;html=1;align=center;verticalAlign=middle;resizable=0;points=[];autosize=1;strokeColor=none;fillColor=none;fontColor=#143642;sketch=1;curveFitting=1;jiggle=2;labelBackgroundColor=none;" vertex="1" parent="1">
          <mxGeometry x="992" y="932" width="135" height="26" as="geometry" />
        </mxCell>
        <mxCell id="MjvKJOx-emdqVly3m24N-116" style="edgeStyle=orthogonalEdgeStyle;rounded=0;sketch=1;hachureGap=4;jiggle=2;curveFitting=1;orthogonalLoop=1;jettySize=auto;html=1;curved=0;exitX=0;exitY=1;exitDx=0;exitDy=-5;exitPerimeter=0;entryX=1;entryY=0;entryDx=0;entryDy=5;entryPerimeter=0;strokeColor=#A8201A;fontFamily=Architects Daughter;fontSource=https%3A%2F%2Ffonts.googleapis.com%2Fcss%3Ffamily%3DArchitects%2BDaughter;fontColor=#143642;fillColor=#FAE5C7;dashed=1;dashPattern=8 8;" edge="1" parent="1">
          <mxGeometry relative="1" as="geometry">
            <mxPoint x="1587" y="1069" as="sourcePoint" />
            <mxPoint x="1839" y="1069" as="targetPoint" />
          </mxGeometry>
        </mxCell>
        <mxCell id="MjvKJOx-emdqVly3m24N-117" value="show list of appointment" style="text;html=1;align=center;verticalAlign=middle;resizable=0;points=[];autosize=1;strokeColor=none;fillColor=none;fontColor=#143642;sketch=1;curveFitting=1;jiggle=2;labelBackgroundColor=none;" vertex="1" parent="1">
          <mxGeometry x="1637" y="1048" width="147" height="26" as="geometry" />
        </mxCell>
        <mxCell id="MjvKJOx-emdqVly3m24N-119" style="edgeStyle=orthogonalEdgeStyle;rounded=0;sketch=1;hachureGap=4;jiggle=2;curveFitting=1;orthogonalLoop=1;jettySize=auto;html=1;curved=0;exitX=1;exitY=1;exitDx=0;exitDy=-5;exitPerimeter=0;entryX=0;entryY=0;entryDx=0;entryDy=5;entryPerimeter=0;strokeColor=#A8201A;fontFamily=Architects Daughter;fontSource=https%3A%2F%2Ffonts.googleapis.com%2Fcss%3Ffamily%3DArchitects%2BDaughter;fontColor=#143642;fillColor=#FAE5C7;" edge="1" parent="1">
          <mxGeometry relative="1" as="geometry">
            <mxPoint x="336" y="995" as="sourcePoint" />
            <mxPoint x="501" y="995" as="targetPoint" />
          </mxGeometry>
        </mxCell>
        <mxCell id="MjvKJOx-emdqVly3m24N-120" value="request where appointment" style="text;html=1;align=center;verticalAlign=middle;resizable=0;points=[];autosize=1;strokeColor=none;fillColor=none;fontColor=#143642;sketch=1;curveFitting=1;jiggle=2;labelBackgroundColor=none;" vertex="1" parent="1">
          <mxGeometry x="334" y="973" width="163" height="26" as="geometry" />
        </mxCell>
        <mxCell id="MjvKJOx-emdqVly3m24N-121" style="edgeStyle=orthogonalEdgeStyle;rounded=0;sketch=1;hachureGap=4;jiggle=2;curveFitting=1;orthogonalLoop=1;jettySize=auto;html=1;curved=0;exitX=1;exitY=1;exitDx=0;exitDy=-5;exitPerimeter=0;entryX=0;entryY=0;entryDx=0;entryDy=5;entryPerimeter=0;strokeColor=#A8201A;fontFamily=Architects Daughter;fontSource=https%3A%2F%2Ffonts.googleapis.com%2Fcss%3Ffamily%3DArchitects%2BDaughter;fontColor=#143642;fillColor=#FAE5C7;dashed=1;dashPattern=8 8;" edge="1" parent="1">
          <mxGeometry relative="1" as="geometry">
            <mxPoint x="501" y="1021" as="sourcePoint" />
            <mxPoint x="336" y="1021" as="targetPoint" />
          </mxGeometry>
        </mxCell>
        <mxCell id="MjvKJOx-emdqVly3m24N-122" value="response" style="text;html=1;align=center;verticalAlign=middle;resizable=0;points=[];autosize=1;strokeColor=none;fillColor=none;fontColor=#143642;sketch=1;curveFitting=1;jiggle=2;labelBackgroundColor=none;" vertex="1" parent="1">
          <mxGeometry x="382" y="999" width="67" height="26" as="geometry" />
        </mxCell>
        <mxCell id="MjvKJOx-emdqVly3m24N-123" style="edgeStyle=orthogonalEdgeStyle;rounded=0;sketch=1;hachureGap=4;jiggle=2;curveFitting=1;orthogonalLoop=1;jettySize=auto;html=1;curved=0;exitX=0;exitY=0;exitDx=0;exitDy=5;exitPerimeter=0;entryX=1;entryY=0;entryDx=0;entryDy=5;entryPerimeter=0;strokeColor=#A8201A;fontFamily=Architects Daughter;fontSource=https%3A%2F%2Ffonts.googleapis.com%2Fcss%3Ffamily%3DArchitects%2BDaughter;fontColor=#143642;fillColor=#FAE5C7;" edge="1" parent="1">
          <mxGeometry relative="1" as="geometry">
            <mxPoint x="337" y="1058" as="sourcePoint" />
            <mxPoint x="1578" y="1058" as="targetPoint" />
          </mxGeometry>
        </mxCell>
        <mxCell id="MjvKJOx-emdqVly3m24N-124" value="list of appointment" style="text;html=1;align=center;verticalAlign=middle;resizable=0;points=[];autosize=1;strokeColor=none;fillColor=none;fontColor=#143642;sketch=1;curveFitting=1;jiggle=2;labelBackgroundColor=none;" vertex="1" parent="1">
          <mxGeometry x="1002" y="1030" width="115" height="26" as="geometry" />
        </mxCell>
        <mxCell id="MjvKJOx-emdqVly3m24N-125" style="edgeStyle=orthogonalEdgeStyle;rounded=0;sketch=1;hachureGap=4;jiggle=2;curveFitting=1;orthogonalLoop=1;jettySize=auto;html=1;curved=0;exitX=0;exitY=1;exitDx=0;exitDy=-5;exitPerimeter=0;entryX=1;entryY=0;entryDx=0;entryDy=5;entryPerimeter=0;strokeColor=#A8201A;fontFamily=Architects Daughter;fontSource=https%3A%2F%2Ffonts.googleapis.com%2Fcss%3Ffamily%3DArchitects%2BDaughter;fontColor=#143642;fillColor=#FAE5C7;" edge="1" parent="1">
          <mxGeometry relative="1" as="geometry">
            <mxPoint x="1835" y="1104" as="sourcePoint" />
            <mxPoint x="1583" y="1104" as="targetPoint" />
          </mxGeometry>
        </mxCell>
        <mxCell id="MjvKJOx-emdqVly3m24N-126" value="select appointment" style="text;html=1;align=center;verticalAlign=middle;resizable=0;points=[];autosize=1;strokeColor=none;fillColor=none;fontColor=#143642;sketch=1;curveFitting=1;jiggle=2;labelBackgroundColor=none;" vertex="1" parent="1">
          <mxGeometry x="1652" y="1081" width="119" height="26" as="geometry" />
        </mxCell>
        <mxCell id="MjvKJOx-emdqVly3m24N-128" style="edgeStyle=orthogonalEdgeStyle;rounded=0;sketch=1;hachureGap=4;jiggle=2;curveFitting=1;orthogonalLoop=1;jettySize=auto;html=1;curved=0;exitX=0;exitY=0;exitDx=0;exitDy=5;exitPerimeter=0;entryX=1;entryY=0;entryDx=0;entryDy=5;entryPerimeter=0;strokeColor=#A8201A;fontFamily=Architects Daughter;fontSource=https%3A%2F%2Ffonts.googleapis.com%2Fcss%3Ffamily%3DArchitects%2BDaughter;fontColor=#143642;fillColor=#FAE5C7;" edge="1" parent="1">
          <mxGeometry relative="1" as="geometry">
            <mxPoint x="1576" y="1124" as="sourcePoint" />
            <mxPoint x="335" y="1124" as="targetPoint" />
          </mxGeometry>
        </mxCell>
        <mxCell id="MjvKJOx-emdqVly3m24N-129" value="get details and session link" style="text;html=1;align=center;verticalAlign=middle;resizable=0;points=[];autosize=1;strokeColor=none;fillColor=none;fontColor=#143642;sketch=1;curveFitting=1;jiggle=2;labelBackgroundColor=none;" vertex="1" parent="1">
          <mxGeometry x="977" y="1096" width="161" height="26" as="geometry" />
        </mxCell>
        <mxCell id="MjvKJOx-emdqVly3m24N-131" value="" style="html=1;points=[[0,0,0,0,5],[0,1,0,0,-5],[1,0,0,0,5],[1,1,0,0,-5]];perimeter=orthogonalPerimeter;outlineConnect=0;targetShapes=umlLifeline;portConstraint=eastwest;newEdgeStyle={&quot;curved&quot;:0,&quot;rounded&quot;:0};sketch=1;hachureGap=4;jiggle=2;curveFitting=1;strokeColor=#0F8B8D;fontFamily=Architects Daughter;fontSource=https%3A%2F%2Ffonts.googleapis.com%2Fcss%3Ffamily%3DArchitects%2BDaughter;fontColor=#143642;fillColor=#FAE5C7;" vertex="1" parent="1">
          <mxGeometry x="500" y="1144" width="10" height="80" as="geometry" />
        </mxCell>
        <mxCell id="MjvKJOx-emdqVly3m24N-132" style="edgeStyle=orthogonalEdgeStyle;rounded=0;sketch=1;hachureGap=4;jiggle=2;curveFitting=1;orthogonalLoop=1;jettySize=auto;html=1;curved=0;exitX=1;exitY=1;exitDx=0;exitDy=-5;exitPerimeter=0;entryX=0;entryY=0;entryDx=0;entryDy=5;entryPerimeter=0;strokeColor=#A8201A;fontFamily=Architects Daughter;fontSource=https%3A%2F%2Ffonts.googleapis.com%2Fcss%3Ffamily%3DArchitects%2BDaughter;fontColor=#143642;fillColor=#FAE5C7;" edge="1" parent="1">
          <mxGeometry relative="1" as="geometry">
            <mxPoint x="335" y="1155" as="sourcePoint" />
            <mxPoint x="500" y="1155" as="targetPoint" />
          </mxGeometry>
        </mxCell>
        <mxCell id="MjvKJOx-emdqVly3m24N-133" value="request where details appointment" style="text;html=1;align=center;verticalAlign=middle;resizable=0;points=[];autosize=1;strokeColor=none;fillColor=none;fontColor=#143642;sketch=1;curveFitting=1;jiggle=2;labelBackgroundColor=none;" vertex="1" parent="1">
          <mxGeometry x="314" y="1133" width="201" height="26" as="geometry" />
        </mxCell>
        <mxCell id="MjvKJOx-emdqVly3m24N-134" style="edgeStyle=orthogonalEdgeStyle;rounded=0;sketch=1;hachureGap=4;jiggle=2;curveFitting=1;orthogonalLoop=1;jettySize=auto;html=1;curved=0;exitX=1;exitY=1;exitDx=0;exitDy=-5;exitPerimeter=0;entryX=0;entryY=0;entryDx=0;entryDy=5;entryPerimeter=0;strokeColor=#A8201A;fontFamily=Architects Daughter;fontSource=https%3A%2F%2Ffonts.googleapis.com%2Fcss%3Ffamily%3DArchitects%2BDaughter;fontColor=#143642;fillColor=#FAE5C7;dashed=1;dashPattern=8 8;" edge="1" parent="1">
          <mxGeometry relative="1" as="geometry">
            <mxPoint x="500" y="1181" as="sourcePoint" />
            <mxPoint x="335" y="1181" as="targetPoint" />
          </mxGeometry>
        </mxCell>
        <mxCell id="MjvKJOx-emdqVly3m24N-135" value="response" style="text;html=1;align=center;verticalAlign=middle;resizable=0;points=[];autosize=1;strokeColor=none;fillColor=none;fontColor=#143642;sketch=1;curveFitting=1;jiggle=2;labelBackgroundColor=none;" vertex="1" parent="1">
          <mxGeometry x="381" y="1159" width="67" height="26" as="geometry" />
        </mxCell>
        <mxCell id="MjvKJOx-emdqVly3m24N-136" style="edgeStyle=orthogonalEdgeStyle;rounded=0;sketch=1;hachureGap=4;jiggle=2;curveFitting=1;orthogonalLoop=1;jettySize=auto;html=1;curved=0;exitX=0;exitY=0;exitDx=0;exitDy=5;exitPerimeter=0;entryX=0;entryY=0;entryDx=0;entryDy=5;entryPerimeter=0;strokeColor=#A8201A;fontFamily=Architects Daughter;fontSource=https%3A%2F%2Ffonts.googleapis.com%2Fcss%3Ffamily%3DArchitects%2BDaughter;fontColor=#143642;fillColor=#FAE5C7;" edge="1" parent="1">
          <mxGeometry relative="1" as="geometry">
            <mxPoint x="336" y="1216" as="sourcePoint" />
            <mxPoint x="1387" y="1217" as="targetPoint" />
          </mxGeometry>
        </mxCell>
        <mxCell id="MjvKJOx-emdqVly3m24N-137" value="details appointment" style="text;html=1;align=center;verticalAlign=middle;resizable=0;points=[];autosize=1;strokeColor=none;fillColor=none;fontColor=#143642;sketch=1;curveFitting=1;jiggle=2;labelBackgroundColor=none;" vertex="1" parent="1">
          <mxGeometry x="998" y="1188" width="122" height="26" as="geometry" />
        </mxCell>
        <mxCell id="MjvKJOx-emdqVly3m24N-138" style="edgeStyle=orthogonalEdgeStyle;rounded=0;sketch=1;hachureGap=4;jiggle=2;curveFitting=1;orthogonalLoop=1;jettySize=auto;html=1;curved=0;exitX=1;exitY=0;exitDx=0;exitDy=5;exitPerimeter=0;entryX=0;entryY=1;entryDx=0;entryDy=-5;entryPerimeter=0;strokeColor=#A8201A;fontFamily=Architects Daughter;fontSource=https%3A%2F%2Ffonts.googleapis.com%2Fcss%3Ffamily%3DArchitects%2BDaughter;fontColor=#143642;fillColor=#FAE5C7;dashed=1;dashPattern=8 8;" edge="1" parent="1">
          <mxGeometry relative="1" as="geometry">
            <mxPoint x="1397" y="1230" as="sourcePoint" />
            <mxPoint x="1839.0000000000005" y="1230" as="targetPoint" />
          </mxGeometry>
        </mxCell>
        <mxCell id="MjvKJOx-emdqVly3m24N-139" value="show details and session link appointment" style="text;html=1;align=center;verticalAlign=middle;resizable=0;points=[];autosize=1;strokeColor=none;fillColor=none;fontColor=#143642;sketch=1;curveFitting=1;jiggle=2;labelBackgroundColor=none;" vertex="1" parent="1">
          <mxGeometry x="1506" y="1208" width="242" height="26" as="geometry" />
        </mxCell>
      </root>
    </mxGraphModel>
  </diagram>
</mxfile>
